<svg width="512" height="512" viewBox="0 0 120 120" fill="none" xmlns="http://www.w3.org/2000/svg">
  <defs>
    <linearGradient id="bg" x1="0%" y1="0%" x2="100%" y2="100%">
      <stop offset="0%" stop-color="#7B2FF7" />
      <stop offset="100%" stop-color="#3A1C71" />
    </linearGradient>
  </defs>

  <circle cx="60" cy="60" r="56" fill="url(#bg)" />
  <circle cx="60" cy="60" r="53" fill="none" stroke="#C4B5FD" stroke-opacity="0.35" />

  <circle cx="60" cy="34" r="10" fill="#F5F3FF" fill-opacity="0.95" />
  <path d="M55 34l5-3 5 3-5 3-5-3zM58.5 36.5v4.5M61.5 36.5v4.5" stroke="#4C1D95" stroke-width="1.8" stroke-linecap="round" stroke-linejoin="round" fill="none" />

  <circle cx="34" cy="74" r="10" fill="#FFFFFF" fill-opacity="0.92" />
  <path d="M32 70v8M35 70v8M32 74h3M33.5 78v3.5M37.5 70c1.8 1.8 1.8 4.8 0 6.6v4.9" stroke="#4C1D95" stroke-width="1.7" stroke-linecap="round" stroke-linejoin="round" fill="none" />

  <circle cx="60" cy="84" r="10" fill="#FFFFFF" fill-opacity="0.92" />
  <path d="M60 79c2 2.6 3.5 4.2 3.5 6.3a3.5 3.5 0 11-7 0c0-2.1 1.5-3.7 3.5-6.3z" stroke="#4C1D95" stroke-width="1.8" stroke-linecap="round" stroke-linejoin="round" fill="none" />

  <circle cx="86" cy="74" r="10" fill="#FFFFFF" fill-opacity="0.92" />
  <path d="M82.5 73.5l2-2h3l2 2h2v3l-1.3 1.3v4.8h-8.4v-4.8l-1.3-1.3v-3h2z" stroke="#4C1D95" stroke-width="1.7" stroke-linecap="round" stroke-linejoin="round" fill="none" />

  <path d="M43 67c4-5 9-7 17-7s13 2 17 7" stroke="#DDD6FE" stroke-width="2" stroke-linecap="round" fill="none" />
  <path d="M41 73c4 4 8 6 19 6s15-2 19-6" stroke="#DDD6FE" stroke-width="2" stroke-linecap="round" fill="none" />
</svg>

